<?xml version="1.0" encoding="UTF-8"?><svg id="Layer_2" xmlns="http://www.w3.org/2000/svg" viewBox="0 0 647.23 700.17"><g id="Layer_2-2"><g id="Layer_1-2"><g id="Layer_2-2"><g><g><path d="M643.21,243.06c-9.6-87.05-63.97-185.99-177.28-197.47-106.57-10.8-201.98,56-261.71,124.75-61.41,70.67-99.91,156.76-110.24,244.36-10.06,85.31,6.92,189.37,89.98,246.55,9,6.2,18.24,11.21,27.7,15.27,35.67,15.3,74.56,17.04,116.05,17.13,67.56,.15,186-.19,253.56-.03l-49.58-124.95c15.59-18.3,30.07-37.18,42.72-57.09,45.12-71.02,69.59-150.97,70.82-231.77-.21-12.28-.68-24.52-2.03-36.75h.01Zm-151.67,96.92c-8.78,78.91-50.83,165.82-116.28,204.15-39.49,23.13-86.06,20.07-111.03-22.25-39.93-67.67-12.64-169.55,26.35-233.9,28.9-47.7,79.43-99.48,133.82-90.76,58.46,9.38,73.01,85.73,67.14,142.76Z" style="fill:#fff; stroke:#fff; stroke-linecap:round; stroke-linejoin:round; stroke-width:4px;"/><path d="M553.83,200.62C544.23,113.57,489.86,14.63,376.55,3.15,269.98-7.65,174.57,59.15,114.84,127.9,53.43,198.57,14.93,284.66,4.6,372.26c-9.37,79.4,4.7,175.03,73.65,234,5.14,4.39,10.58,8.58,16.34,12.55,42.91,29.54,91.26,32.28,143.76,32.4,67.56,.15,187.37,1.01,254.94,1.16l-50.95-126.15c15.59-18.3,30.07-37.18,42.72-57.09,45.12-71.02,69.59-150.97,70.82-231.77-.21-12.28-.68-24.52-2.03-36.75h-.02Zm-151.67,96.93c-8.78,78.91-50.83,165.82-116.28,204.15-39.49,23.13-86.06,20.07-111.03-22.25-39.93-67.67-12.64-169.55,26.35-233.9,28.9-47.7,79.43-99.48,133.82-90.76,58.46,9.38,73.01,85.73,67.14,142.76h0Z" style="stroke:#fff; stroke-linecap:round; stroke-linejoin:round; stroke-width:4px;"/><g><path d="M555.86,79.35S493.27,19.2,376.4,3.14" style="fill:none; stroke:#fff; stroke-linecap:round; stroke-linejoin:round; stroke-width:4px;"/><path d="M244.62,686.95s-85.41-15.37-166.6-80.42" style="fill:none; stroke:#fff; stroke-miterlimit:10; stroke-width:3px;"/><path d="M184.54,660.48c-.16-.02-.32-.03-.47-.05,.38,.07,.02,0-.07-.01-.27-.04-.54-.09-.81-.15-.56-.11-1.11-.25-1.65-.42s-1.02-.35-1.53-.54c-.1-.04-.07-.03,.09,.04-.07-.03-.14-.06-.21-.09-.12-.05-.24-.11-.36-.17-.26-.12-.51-.25-.76-.39-.69-.37-1.67-.19-2.05,.54s-.2,1.65,.54,2.05c2.27,1.22,4.73,1.92,7.29,2.19,.78,.08,1.53-.75,1.5-1.5-.04-.88-.66-1.41-1.5-1.5h-.01Z" style="fill:#fff;"/><path d="M177.2,658.32c-6.52-1.15-12.89-3.11-18.87-5.99-1.73-.83-3.25,1.75-1.51,2.59,6.21,2.99,12.79,5.1,19.58,6.29,1.89,.33,2.7-2.56,.8-2.89h0Z" style="fill:#fff;"/><path d="M161.65,655.52c2.35,0,4.61-2.07,4.5-4.5s-1.98-4.5-4.5-4.5c-2.35,0-4.61,2.07-4.5,4.5s1.98,4.5,4.5,4.5h0Z" style="fill:#fff;"/><path d="M161.28,655.76c11.15,5.15,22.23,10.43,33.79,14.6,2.22,.8,5.02-.9,5.54-3.14,.58-2.53-.77-4.68-3.14-5.54-10.94-3.95-20.82-8.69-31.65-13.69-2.13-.98-4.95-.67-6.16,1.61-1.05,1.98-.67,5.1,1.61,6.16h.01Z" style="fill:#fff;"/><path d="M155.62,652.97c3.86,0,3.87-6,0-6s-3.87,6,0,6h0Z" style="fill:#fff;"/><path d="M153.61,651.72c3.86,0,3.87-6,0-6s-3.87,6,0,6h0Z" style="fill:#fff;"/><path d="M151.86,651.09c3.86,0,3.87-6,0-6s-3.87,6,0,6h0Z" style="fill:#fff;"/><path d="M149.85,649.41c3.86,0,3.87-6,0-6s-3.87,6,0,6h0Z" style="fill:#fff;"/><path d="M147.59,648.99c3.86,0,3.87-6,0-6s-3.87,6,0,6h0Z" style="fill:#fff;"/><path d="M144.07,647.7c1.93,0,1.93-3,0-3s-1.93,3,0,3h0Z" style="fill:#fff;"/><path d="M142.31,646.44c1.93,0,1.93-3,0-3s-1.93,3,0,3h0Z" style="fill:#fff;"/><path d="M141.36,643.46l-.25-.21c-.14-.15-.3-.25-.48-.31-.18-.09-.37-.14-.58-.13-.21,0-.4,.04-.58,.13-.19,.06-.35,.16-.48,.31l-.23,.3c-.14,.23-.2,.49-.2,.76l.05,.4c.07,.25,.2,.47,.39,.66l.25,.21c.14,.15,.3,.25,.48,.31,.18,.09,.37,.14,.58,.13,.21,0,.4-.04,.58-.13,.19-.06,.35-.16,.48-.31l.23-.3c.14-.23,.2-.49,.2-.76l-.05-.4c-.07-.25-.2-.47-.39-.66h0Z" style="fill:#fff;"/><path d="M138.54,645.4c1.93,0,1.93-3,0-3s-1.93,3,0,3h0Z" style="fill:#fff;"/><path d="M137.03,644.14c1.93,0,1.93-3,0-3s-1.93,3,0,3h0Z" style="fill:#fff;"/><path d="M134.52,642.67c1.93,0,1.93-3,0-3s-1.93,3,0,3h0Z" style="fill:#fff;"/><path d="M132.76,641.2c1.93,0,1.93-3,0-3s-1.93,3,0,3h0Z" style="fill:#fff;"/><path d="M130.21,639.41l.25,.42c.09,.17,.22,.32,.39,.42,.14,.13,.31,.22,.51,.27,.2,.06,.4,.07,.6,.03,.2,0,.39-.07,.56-.18l.3-.23c.19-.19,.31-.41,.39-.66l.05-.4c0-.27-.07-.52-.2-.76l-.25-.42c-.09-.17-.22-.32-.39-.42-.14-.13-.31-.22-.51-.27-.2-.06-.4-.07-.6-.03-.2,0-.39,.07-.56,.18l-.3,.23c-.19,.19-.31,.41-.39,.66l-.05,.4c0,.27,.07,.52,.2,.76h0Z" style="fill:#fff;"/><path d="M449.93,25.28c7.06,3.39,14.14,6.73,21.17,10.17,3.4,1.66,6.25,3.81,9.26,6.07s6.15,4.29,9.32,6.29,6.29-3.13,3.03-5.18-6.32-4.04-9.32-6.29-5.87-4.41-9.26-6.07c-7.03-3.44-14.12-6.78-21.17-10.17-1.46-.7-3.24-.4-4.1,1.08-.77,1.31-.39,3.4,1.08,4.1h-.01Z" style="fill:#fff;"/><path d="M485.17,42.27c-.72-1.43-1.88-2.59-3.09-3.61s-2.29-1.99-3.34-3.12c-1.15-1.25-2.41-2.37-3.91-3.2-.63-.35-1.29-.67-1.92-1.02-.3-.16-.59-.33-.87-.52-.08-.05-.17-.11-.25-.17-.18-.13-.11-.07,.21,.17-.09,.01-.39-.34-.44-.39-1.14-1.08-3.13-1.21-4.24,0s-1.22,3.09,0,4.24,2.6,1.85,4.03,2.61c.3,.16,.61,.32,.9,.5,.15,.09,.29,.18,.43,.27,.3,.2,.28,.16,0-.03,.63,.41,1.16,1.05,1.67,1.6,1,1.08,2.04,2.07,3.17,3.01,.53,.44,1.06,.89,1.54,1.38,.14,.14,.28,.29,.41,.44,.07,.08,.46,.52,.14,.16s.06,.11,.1,.18c.1,.16,.19,.34,.28,.51,.7,1.41,2.8,1.92,4.1,1.08,1.44-.93,1.83-2.6,1.08-4.1h0Z" style="fill:#fff;"/><path d="M487.26,49.38l.18,.07c.4,.13,.8,.14,1.2,.05,.4-.02,.77-.14,1.12-.36,.35-.19,.63-.45,.84-.77,.27-.29,.44-.63,.54-1.02l.11-.8c0-.54-.14-1.05-.41-1.51l-.47-.61c-.37-.37-.82-.63-1.32-.77l-.18-.07c-.4-.13-.8-.14-1.2-.05-.4,.02-.77,.14-1.12,.36-.35,.19-.63,.45-.84,.77-.27,.29-.44,.63-.54,1.02l-.11,.8c0,.54,.14,1.05,.41,1.51l.47,.61c.37,.37,.82,.63,1.32,.77h0Z" style="fill:#fff;"/><path d="M488.01,42.3c10.38,7.19,21.29,13.59,32.61,19.19l2.31-5.48c-5.13-1.54-10.08-3.6-15.03-5.65s-10.23-4.06-15.4-5.93c-1.52-.55-3.29,.62-3.69,2.1-.46,1.67,.57,3.14,2.1,3.69,5.18,1.87,10.32,3.82,15.4,5.93s9.89,4.11,15.03,5.65c3.2,.96,5.4-3.95,2.31-5.48-11.31-5.61-22.22-12-32.61-19.19-1.33-.92-3.33-.25-4.1,1.08-.87,1.49-.26,3.18,1.08,4.1h-.01Z" style="fill:#fff;"/></g></g><path d="M451.78,21.26c-1.05-.28-2.09-.6-3.12-.95-.5-.17-1.01-.35-1.51-.54-.26-.1-.52-.2-.77-.3-.11-.04-.22-.09-.33-.13-.06-.03-.55-.23-.19-.08-.39-.16-.73-.27-1.16-.15-.35,.1-.73,.36-.9,.69-.34,.64-.23,1.73,.54,2.05,2.16,.91,4.37,1.7,6.63,2.31,.76,.2,1.66-.25,1.85-1.05s-.24-1.63-1.05-1.85h.01Z" style="fill:#fff;"/><path d="M461.36,32.11c3.29,3.89,8.31,5.3,12.36,8.16s7.16,6.96,12.2,7.81c.66,.11,1.35-.07,1.69-.69,2.46-4.37,.81-10-3.84-12.07l-1.16,2.74c2.04,.6,3.99,1.38,5.88,2.35,1.71,.88,3.23-1.7,1.51-2.59-2.11-1.09-4.31-1.98-6.59-2.65-1.59-.47-2.74,2.04-1.16,2.74,3.14,1.4,4.49,4.9,2.76,7.96l1.69-.69c-4.69-.79-7.79-4.89-11.49-7.51s-8.65-4.02-11.75-7.69c-1.25-1.48-3.36,.65-2.12,2.12h.02Z" style="fill:#fff;"/><path d="M126.68,638.5c1.08,.87,2.21,1.66,3.43,2.33,1.72,.95,3.07-1.49,1.51-2.59-1.14-.81-2.29-1.62-3.43-2.43l-1.51,2.59c2.7,1.77,5.41,3.54,8.3,4.98s6.06,2.46,9.22,3.33c6.61,1.82,13.24,3.6,19.85,5.39,1.68,.46,2.56-1.82,1.16-2.74-6.97-4.55-15.59-5.03-23.63-5.92-.97-.11-1.7,1.04-1.45,1.9,.53,1.79,2.21,2.47,3.73,3.27,1.89,1,3.79,1.98,5.69,2.95,3.81,1.94,7.65,3.82,11.51,5.65,7.71,3.64,15.52,7.05,23.42,10.24,4.51,1.82,9.1,3.91,13.89,4.84,1.89,.37,2.69-2.52,.8-2.89-3.97-.77-7.73-2.39-11.47-3.87s-7.54-3.05-11.28-4.65c-7.42-3.19-14.75-6.59-21.98-10.19-1.98-.99-3.96-1.99-5.93-3.01-1.05-.55-2.11-1.1-3.16-1.65-.56-.3-2.15-.81-2.35-1.48l-1.45,1.9c7.52,.83,15.6,1.26,22.12,5.51l1.16-2.74c-6.47-1.76-12.93-3.5-19.4-5.27-3.06-.84-6.11-1.74-8.96-3.16s-5.6-3.21-8.3-4.98c-1.63-1.07-3.07,1.49-1.51,2.59,1.14,.81,2.29,1.62,3.43,2.43l1.51-2.59c-.99-.55-1.94-1.15-2.82-1.86-1.49-1.2-3.62,.91-2.12,2.12h.02Z" style="fill:#fff;"/><line x1="438.15" y1="523.37" x2="537.15" y2="568.37" style="fill:none; stroke:#000; stroke-miterlimit:10; stroke-width:4px;"/><line x1="487.84" y1="648.98" x2="588.15" y2="698.37" style="fill:none; stroke:#000; stroke-miterlimit:10; stroke-width:4px;"/></g></g></g></g></svg>