<?xml version="1.0" encoding="UTF-8"?>
<svg id="Layer_2"
    xmlns="http://www.w3.org/2000/svg" viewBox="0 0 130.28 140.18">
    <g id="Layer_1-2">
        <g id="Layer_2-2">
            <g>
                <path d="M88.53,105.33l10.09,24.98,.07,.18h-.02c-13.51-.03-37.43-.2-50.93-.23-5.11-.01-10.03-.15-14.72-.97-4.93-.86-9.61-2.48-14.01-5.51-1.15-.79-2.24-1.63-3.26-2.51-3.12-2.67-5.68-5.71-7.75-9.01C.93,100.99-.43,86.77,1.02,74.5,3.08,56.99,10.78,39.79,23.05,25.66,34.99,11.93,54.04-1.41,75.33,.73c1.99,.27,3.91,.61,5.74,1,6.26,1.59,11.46,4.63,15.67,8.57,8.41,7.87,12.88,19.32,14.05,29.89,.27,2.44,.36,4.89,.41,7.34-.25,16.15-5.14,32.13-14.15,46.32-2.5,3.93-5.35,7.66-8.42,11.27-.04,.05-.08,.09-.12,.14l.02,.06Zm-8.05-45.76c.78-7.61-.25-16.95-4.51-22.87-2.11-2.94-5.03-5.04-8.9-5.66-10.87-1.74-20.97,8.61-26.75,18.14-7.79,12.86-13.25,33.22-5.27,46.75,2.99,5.06,7.52,7.31,12.37,7.31,.12,0,.23,0,.35,0,.13,0,.26,0,.38-.01,.1,0,.21,0,.31-.02,.06,0,.12,0,.19-.01,.1,0,.2-.02,.3-.03,.13,0,.26-.02,.38-.04,.08,0,.16-.02,.23-.03,.21-.03,.41-.06,.62-.09h0c.1-.02,.21-.04,.31-.06,.1-.02,.21-.04,.31-.06,.1-.02,.21-.04,.31-.07,.31-.07,.62-.15,.93-.23,.3-.08,.61-.17,.91-.27,.01,0,.03,0,.04-.02,.04-.01,.08-.02,.12-.04,.05-.02,.11-.04,.16-.06,.31-.11,.62-.22,.92-.34,.14-.06,.29-.12,.43-.18,.02,0,.04-.02,.07-.03,.16-.07,.33-.14,.49-.22,.17-.08,.34-.16,.51-.24,0,0,.02,0,.02,0,.15-.07,.3-.15,.45-.23,.05-.03,.11-.05,.16-.08,.13-.07,.26-.14,.39-.21,.17-.09,.34-.19,.5-.29,13.08-7.66,21.49-25.03,23.24-40.8Z" style="fill:#161719;"/>
                <g>
                    <path d="M81.07,1.73c-1.81-.46-3.72-.8-5.71-1,0,0-.02,0-.03,0" style="fill:none; stroke:#161719; stroke-linecap:round; stroke-linejoin:round;"/>
                    <path d="M56.34,100.87c.13-.07,.26-.14,.39-.21,.17-.09,.34-.19,.5-.29" style="fill:none; stroke:#161719; stroke-linecap:round; stroke-linejoin:round;"/>
                    <path d="M55.74,101.18c.15-.07,.3-.15,.45-.23" style="fill:none; stroke:#161719; stroke-linecap:round; stroke-linejoin:round;"/>
                    <path d="M54.71,101.65c.16-.07,.33-.14,.49-.22,.17-.08,.34-.16,.51-.24" style="fill:none; stroke:#161719; stroke-linecap:round; stroke-linejoin:round;"/>
                    <path d="M54.21,101.86c.14-.06,.29-.12,.43-.18" style="fill:none; stroke:#161719; stroke-linecap:round; stroke-linejoin:round;"/>
                    <path d="M53,102.3c.1-.03,.19-.06,.28-.1" style="fill:none; stroke:#161719; stroke-linecap:round; stroke-linejoin:round;"/>
                    <path d="M50.19,103c.1-.02,.21-.04,.31-.06,.1-.02,.21-.04,.31-.06s.21-.04,.31-.07c.31-.07,.62-.15,.93-.23" style="fill:none; stroke:#161719; stroke-linecap:round; stroke-linejoin:round;"/>
                    <path d="M49.34,103.12c.08,0,.16-.02,.23-.03,.21-.03,.41-.06,.62-.09" style="fill:none; stroke:#161719; stroke-linecap:round; stroke-linejoin:round;"/>
                    <path d="M48.65,103.19c.1,0,.2-.02,.3-.03" style="fill:none; stroke:#161719; stroke-linecap:round; stroke-linejoin:round;"/>
                    <path d="M48.15,103.22c.1,0,.21,0,.31-.02" style="fill:none; stroke:#161719; stroke-linecap:round; stroke-linejoin:round;"/>
                    <path d="M47.42,103.23c.12,0,.23,0,.35,0" style="fill:none; stroke:#161719; stroke-linecap:round; stroke-linejoin:round;"/>
                    <path d="M75.96,36.69c-2.11-2.94-5.03-5.04-8.9-5.66-10.87-1.74-20.97,8.61-26.75,18.14-7.79,12.86-13.25,33.22-5.27,46.75,2.99,5.06,7.52,7.31,12.37,7.31,.12,0,.23,0,.35,0,.13,0,.26,0,.38-.01,.1,0,.21,0,.31-.02,.06,0,.12,0,.19-.01,.1,0,.2-.02,.3-.03,.13,0,.26-.02,.38-.04,.08,0,.16-.02,.23-.03,.21-.03,.41-.06,.62-.09h0c.1-.02,.21-.04,.31-.06,.1-.02,.21-.04,.31-.06,.1-.02,.21-.04,.31-.07,.31-.07,.62-.15,.93-.23,.3-.08,.61-.17,.91-.27,.01,0,.03,0,.04-.02,.04-.01,.08-.02,.12-.04,.05-.02,.11-.04,.16-.06,.31-.11,.62-.22,.92-.34,.15-.06,.29-.12,.43-.18,.02,0,.04-.02,.07-.03,.16-.07,.33-.14,.49-.22,.17-.08,.34-.16,.51-.24,0,0,.02,0,.02,0,.15-.07,.3-.15,.45-.23,.05-.03,.11-.05,.16-.08,.13-.07,.26-.14,.39-.21,.17-.09,.34-.19,.5-.29,13.08-7.66,21.49-25.03,23.24-40.8,.78-7.61-.25-16.95-4.51-22.87Z" style="fill:none; stroke:#161719; stroke-linecap:round; stroke-linejoin:round;"/>
                    <path d="M52.89,102.1c-7.98-13.52-3.3-35.24,4.49-48.1,4.29-7.08,10.97-14.62,18.58-17.31" style="fill:none; stroke:#161719; stroke-linecap:round; stroke-linejoin:round;"/>
                    <path d="M98.66,130.48l18.52,8.96,.09,.23c-13.5-.03-37.45-.2-50.95-.23" style="fill:none; stroke:#161719; stroke-linecap:round; stroke-linejoin:round;"/>
                    <path d="M96.74,10.3c-4.21-3.94-9.41-6.99-15.67-8.57-1.83-.39-3.75-.73-5.74-1C54.04-1.41,34.99,11.93,23.05,25.66,10.78,39.79,3.08,56.99,1.02,74.5c-1.45,12.27-.09,26.49,6.97,37.75,2.07,3.3,4.63,6.34,7.75,9.01,1.03,.88,2.11,1.71,3.26,2.51,4.39,3.02,9.08,4.64,14.01,5.51,4.69,.82,9.61,.96,14.72,.97,13.49,.03,37.42,.2,50.93,.23h.02l-.07-.18" style="fill:none; stroke:#161719; stroke-linecap:round; stroke-linejoin:round;"/>
                    <path d="M81.07,1.73c19.66,4.17,32.98,16.43,32.98,16.43,4.62,3.88,8.14,8.82,10.66,14.23,2.52,5.4,4.04,11.27,4.67,17-.19-1.7,.29,.69,.41,7.34-.25,16.15-5.14,32.13-14.15,46.32-2.53,3.98-5.42,7.75-8.54,11.41h0s10.08,24.98,10.08,24.98l-18.57-9.14-10.09-24.98-.02-.06s.08-.09,.12-.14c3.07-3.61,5.93-7.34,8.42-11.27,9.02-14.19,13.91-30.17,14.15-46.32-.04-2.45-.14-4.9-.41-7.34-1.17-10.57-5.64-22.02-14.05-29.89" style="fill:none; stroke:#161719; stroke-linecap:round; stroke-linejoin:round;"/>
                    <polyline points="88.47 105.3 88.53 105.33 107.06 114.49" style="fill:none; stroke:#161719; stroke-miterlimit:10;"/>
                    <path d="M7.92,112.3s14.59,28.58,58.36,27.18" style="fill:none; stroke:#161719; stroke-linecap:round; stroke-linejoin:round;"/>
                </g>
            </g>
        </g>
    </g>
</svg>