<svg width="695" height="1034" viewBox="0 0 695 1034" fill="none" xmlns="http://www.w3.org/2000/svg">
<mask id="path-1-inside-1_1_1311" fill="white">
<path fill-rule="evenodd" clip-rule="evenodd" d="M97.1005 0.998134C95.7257 1.67929 94.0837 3.9118 93.4532 5.95928C92.8227 8.00677 91.0901 12.6676 89.6049 16.3147C88.1186 19.9631 86.9028 23.7779 86.9028 24.7929C86.9028 25.8079 84.2206 33.3824 80.9431 41.6259C77.6646 49.8682 74.6202 58.7044 74.1763 61.2614C73.7335 63.8184 72.9528 66.8353 72.4404 67.9656C70.8989 71.3714 64.2093 92.3919 62.6126 98.8495C61.7921 102.168 60.71 105.456 60.2086 106.157C59.7073 106.857 59.2965 108.876 59.2965 110.644C59.2965 112.41 58.4772 115.54 57.4745 117.6C55.0573 122.57 56.1538 125.667 60.3334 125.667C62.1565 125.667 66.3637 127.175 69.6831 129.019C73.0025 130.862 76.5372 132.371 77.5365 132.371C78.537 132.371 82.8347 134.225 87.0883 136.493C91.343 138.76 95.4287 140.331 96.1686 139.987C96.9084 139.642 98.1805 136.731 98.9943 133.519C99.8081 130.306 101.06 125.396 101.777 122.608L103.08 117.537L104.4 121.054C107.32 128.838 109.862 140.212 110.525 148.461C111.443 159.89 114.172 172.98 120.575 196.654L125.812 216.02L133.412 225.138C138.269 230.966 141.011 235.329 141.011 237.232C141.011 238.868 138.747 245.784 135.98 252.6C131.67 263.214 130.8 266.778 129.906 277.456C129.331 284.312 128.417 291.429 127.875 293.273C125.808 300.292 121.726 329.943 122.493 332.366C122.932 333.757 127.322 334.251 141.699 334.53C164.022 334.961 166.292 334.394 168.136 327.93C171.594 315.799 180.228 296.884 187.323 285.898C191.609 279.261 195.489 273.221 195.946 272.476C196.402 271.731 198.555 268.412 200.728 265.102C202.902 261.79 207.349 254.254 210.61 248.354C218.973 233.222 226.27 221.735 236.529 207.554C242.897 198.75 245.47 195.09 253.092 183.99C256.129 179.567 259.144 175.345 259.792 174.608C260.44 173.87 262.94 170.25 265.347 166.563C269.285 160.529 271.632 156.384 277.107 145.779C279.887 140.393 301.89 109.547 308.41 101.893C318.885 89.5976 321.188 82.29 315.911 78.0917C314.325 76.83 309.231 71.4452 304.592 66.1273C295.168 55.3227 280.225 42.5337 277.026 42.5337C274.245 42.5337 268.061 47.7402 258.489 58.1372C254.169 62.8302 250.069 66.669 249.379 66.669C248.689 66.669 248.123 67.1424 248.123 67.7203C248.123 68.2995 246.509 69.9166 244.534 71.3151C240.747 73.9995 232.833 81.6276 225.707 89.4635C217.03 99.005 213.304 99.8806 215.942 91.7591C222.637 71.1515 224.018 54.7998 220.518 37.539C219.21 31.0815 217.684 25.1335 217.129 24.3223C216.574 23.5097 216.375 22.5349 216.686 22.1554C216.999 21.776 215.343 19.0742 213.005 16.1498C210.021 12.4155 207.137 10.3385 203.318 9.17331C200.327 8.26019 196.083 6.94615 193.887 6.25159C186.945 4.05796 171.044 4.68145 167.407 7.29075C165.644 8.55517 164.2 10.0046 164.2 10.5101C164.2 11.7035 156.742 17.0495 155.027 17.0843C154.303 17.0991 150.533 20.1267 146.652 23.8141C137.725 32.2909 137.94 32.5832 132.342 4.31942L131.545 0.296868L115.574 0.0286963C106.789 -0.118797 98.4764 0.316981 97.1005 0.998134ZM432.533 63.3544C422.101 65.5105 408.611 66.0522 399.705 64.6752C394.91 63.9337 392.356 64.0852 391.273 65.178C390.038 66.4223 389.55 74.6873 388.905 105.256C388.355 131.365 387.693 144.086 386.848 144.754C386.163 145.295 383.341 145.747 380.578 145.759C377.814 145.77 375.081 146.333 374.505 147.01C373.928 147.687 368.238 148.536 361.861 148.897C355.484 149.259 348.279 150.07 345.849 150.699C341.814 151.745 341.405 152.249 341.114 156.522C340.844 160.483 341.923 170.923 344.959 193.727C345.28 196.131 345.951 198.405 346.451 198.78C346.953 199.156 349.755 198.787 352.679 197.96C355.603 197.133 359.735 196.201 361.861 195.888C363.987 195.576 367.465 194.924 369.591 194.439C371.716 193.953 374.946 193.463 376.768 193.349C388.343 192.625 391.291 192.484 392.674 192.59C393.962 192.689 394.095 195.609 393.461 209.805C393.042 219.207 392.525 228.711 392.312 230.923C392.1 233.136 391.353 243.907 390.653 254.859C389.243 276.939 389.676 279.38 394.594 277.11C396.105 276.413 400.017 275.842 403.288 275.842C406.559 275.842 411.62 275.249 414.535 274.525C420.573 273.025 438.423 272.366 502.589 271.272C529.899 270.807 548.229 269.978 548.886 269.181C549.599 268.314 549.383 267.043 548.255 265.483C546.525 263.086 543.008 255.289 542.803 253.396C542.547 251.023 540.489 245.529 539.157 243.664C538.367 242.557 536.718 238.332 535.493 234.276C533.328 227.097 533.126 226.866 527.899 225.577C524.837 224.823 500.821 224.246 472.01 224.237L421.489 224.219L421.372 218.185C420.859 191.801 421.086 185.794 422.643 184.576C423.528 183.884 431.456 183.469 440.263 183.656C459.716 184.066 496.321 179.597 499.519 176.42C501.103 174.848 503.061 164.727 503.459 156.064L503.757 149.587L499.126 147.658C496.578 146.597 494.094 145.862 493.605 146.025C493.116 146.187 489.485 145.842 485.537 145.258C472.129 143.273 446.756 143.25 436.189 145.213C430.608 146.25 425.266 146.737 424.319 146.296C422.93 145.649 422.542 142.71 422.325 131.222C421.947 111.243 422.382 99.9128 423.582 98.4553C424.146 97.7701 431.484 97.2431 439.89 97.2834C454.393 97.3544 476.538 95.6019 481.938 93.9554C484.353 93.2192 484.433 92.6869 484.433 77.251V61.3056L462.624 61.4746C450.628 61.5671 437.088 62.4132 432.533 63.3544ZM176.811 92.4804C176.665 94.8765 176.27 99.5534 175.933 102.872C173.76 124.234 173.267 125.955 170.029 123.52C167.162 121.365 167.044 114.642 169.698 104.666C171.509 97.8573 175.758 88.1227 176.919 88.1227C177.005 88.1227 176.957 90.0843 176.811 92.4804ZM229.643 124.863C229.363 126.633 226.397 131.57 223.05 135.833C217.716 142.628 216.831 143.295 215.88 141.231C214.09 137.348 216.937 131.531 223.121 126.433C229.929 120.823 230.292 120.735 229.643 124.863ZM385.606 314.563C382.515 315.365 382.243 315.939 381.49 323.264C380.251 335.302 379.723 466.48 380.899 469.698C381.739 471.992 382.926 472.49 387.625 472.518C395.15 472.564 405.764 474.014 409.896 475.563C411.718 476.247 420.662 476.474 429.772 476.069C458 474.811 505.397 475.854 527.499 478.221C565.711 482.31 668.595 484.488 677.006 481.384L680.201 480.205L680.531 464.174C680.876 447.456 679.418 416.957 678.203 415.484C677.818 415.014 674.187 414.215 670.136 413.707C666.084 413.199 659.788 412.197 656.144 411.483C652.5 410.768 645.543 409.855 640.684 409.454C635.825 409.054 629.147 408.085 625.843 407.302C604.334 402.202 596.702 401.618 554.001 401.807C520.703 401.953 411.209 401.112 401.338 400.635C399.54 400.548 399.406 397.613 399.406 358.573C399.406 327.718 399.054 316.177 398.08 314.995C396.688 313.304 391.187 313.114 385.606 314.563ZM66.2997 368.034L62.8125 368.512L62.3818 382.181C62.1455 389.698 62.3675 402.787 62.8765 411.268C63.4452 420.763 63.3116 439.311 62.5298 459.539C61.1274 495.77 61.4432 533.79 63.1614 535.769C63.846 536.557 69.9294 536.611 79.173 535.908C106.027 533.867 131.185 532.855 158.127 532.734C172.703 532.669 185.307 532.084 186.135 531.436C186.963 530.787 201.622 530.332 218.71 530.424C249.287 530.589 258.452 529.866 291.216 524.708C299.307 523.434 305.433 523.112 308.039 523.827C310.305 524.447 315.969 524.405 320.711 523.733C328.98 522.561 363.411 523.247 365.241 524.621C365.734 524.99 382.194 525.589 401.819 525.952C421.445 526.316 438.993 526.898 440.815 527.245C446.426 528.316 447.428 526.507 447.543 515.102C447.716 497.761 448.425 498.768 435.459 497.969C421.333 497.097 400.873 494.823 399.726 493.997C398.052 492.793 368.87 491.444 346.954 491.56C334.807 491.623 320.645 490.978 315.483 490.126C310.32 489.275 295.164 488.514 281.803 488.437C262.937 488.325 255.906 487.79 250.332 486.042C240.588 482.983 220.928 480.589 213.718 481.58C210.473 482.026 185.332 482.64 157.851 482.945C111.537 483.458 107.888 483.335 107.942 481.24C107.974 479.997 108.672 474.154 109.491 468.254C110.603 460.259 110.866 446.772 110.525 415.291C110.273 392.06 109.846 371.847 109.574 370.372C109.105 367.816 108.157 367.688 89.4337 367.623C78.6286 367.586 68.2178 367.771 66.2997 368.034ZM596.514 528.139C589.833 528.76 577.575 529.72 569.273 530.271C560.971 530.822 553.813 531.719 553.366 532.265C552.918 532.81 551.665 539.748 550.58 547.685C548.601 562.149 547.15 570.694 545.397 578.204L544.458 582.227L511.961 582.897C494.087 583.266 478.808 584.082 478.006 584.71C476.837 585.627 476.686 591.465 477.252 614.209C477.646 630.108 477.422 654.572 476.742 669.897C476.074 684.93 475.696 697.435 475.902 697.685C476.108 697.935 483.205 697.498 491.673 696.714C500.142 695.929 513.778 695.192 521.977 695.074C536.317 694.866 536.871 694.96 536.522 697.54C535.521 704.955 533.657 746.655 533.617 762.536L533.572 780.603L551.792 780.189C561.813 779.962 574.733 779.141 580.503 778.365C586.272 777.59 598.57 776.706 607.833 776.402L624.673 775.848L624.888 770.215C625.24 760.97 625.431 758.174 626.136 751.844C626.506 748.526 627.398 736.607 628.117 725.357C628.839 714.072 629.968 704.377 630.638 703.728C631.305 703.08 637.316 702.182 643.997 701.731C656.458 700.891 670.958 698.937 671.381 698.043C671.512 697.766 671.367 668.577 671.059 633.179L670.499 568.818L667.738 569.204C665.148 569.568 648.788 569.813 642.064 569.589C637.704 569.444 637.798 565.788 642.736 543.573C643.691 539.275 645.183 534.032 646.05 531.921C646.917 529.81 647.348 527.745 647.008 527.332C646.114 526.247 610.79 526.812 596.514 528.139ZM158.679 561.573C132.414 563.122 121.985 565.175 104.571 572.225C103.052 572.841 100.217 573.726 98.2688 574.192C85.2442 577.311 67.892 597.416 62.9803 615.077C61.2643 621.247 61.166 636.283 62.8036 642.03C65.6879 652.151 74.6202 668.248 80.7565 674.382C87.8834 681.506 101.402 688.02 113.734 690.272C118.108 691.072 123.816 692.581 126.418 693.627C129.021 694.673 132.653 695.529 134.489 695.529C136.434 695.529 137.544 696.089 137.146 696.869C136.771 697.607 135.032 698.21 133.281 698.21C131.531 698.21 129.826 698.747 129.491 699.404C129.158 700.059 127.265 700.92 125.285 701.317C123.307 701.714 119.451 702.659 116.718 703.418C113.985 704.177 108.011 704.823 103.441 704.855C98.5074 704.89 90.8847 706.212 84.6689 708.11C78.9135 709.868 65.7564 712.335 55.4317 713.592C45.1069 714.85 36.4463 716.136 36.1857 716.447C33.9938 719.073 31.8007 757.259 33.6393 760.768C34.1804 761.799 38.8801 762.312 47.7019 762.306C54.99 762.3 62.6921 762.981 64.8178 763.821C66.9435 764.66 79.1178 765.892 91.8719 766.56C105.219 767.259 118.81 768.723 123.895 770.009C129.348 771.39 141.604 772.617 155.918 773.216C169.614 773.789 188.149 775.604 201.193 777.649C213.339 779.554 231.228 781.787 240.946 782.611C250.663 783.436 262.217 784.705 266.622 785.431C274.169 786.676 311.271 791.693 322.108 792.935C324.841 793.247 335.028 794.954 344.745 796.728C378.405 802.869 390.617 804.419 392.264 802.759C393.1 801.917 395.127 798.413 396.769 794.973C398.41 791.532 402.783 784.192 406.488 778.661C413.944 767.531 417.986 760.306 420.796 753.086C421.822 750.451 424.358 746.109 426.432 743.441C432.152 736.077 437.893 725.369 439.143 719.735C441.138 710.736 443.732 673.754 442.957 665.359C441.888 653.792 440 649.94 435.401 649.94C433.365 649.94 431.103 650.811 430.375 651.877C429.647 652.943 426.588 655.733 423.578 658.079C418.321 662.175 418.021 662.25 415.962 659.987C412.425 656.101 412.408 653.269 415.867 644.358C417.68 639.685 419.715 632.844 420.389 629.156C421.062 625.469 422.245 621.245 423.017 619.77C423.79 618.296 425.603 612.073 427.047 605.942C428.987 597.705 429.372 594.204 428.517 592.534C427.005 589.573 409.506 579.159 401.062 576.194C397.418 574.915 392.2 572.639 389.467 571.139C386.734 569.639 383.007 568.065 381.185 567.641C379.363 567.217 376.77 566.489 375.421 566.022C373.453 565.341 372.54 566.061 370.782 569.678C369.579 572.155 368.484 574.785 368.349 575.522C368.214 576.26 366.782 579.585 365.167 582.912C363.552 586.238 360.081 594.226 357.455 600.661C354.829 607.097 351.811 613.316 350.75 614.483C348.96 616.449 348.768 616.32 348.116 612.718C347.173 607.504 338.422 597.421 330.942 592.928C327.602 590.922 322.136 587.295 318.795 584.869C312.06 579.977 304.889 576.89 288.428 571.796C272.613 566.902 265.594 565.731 242.602 564.157C231.366 563.386 216.956 562.159 210.579 561.427C197.679 559.95 185.672 559.983 158.679 561.573ZM309.851 665.975C319.623 670.868 323.84 674.428 326.073 679.674C327.644 683.36 328.147 683.642 331.73 682.825L335.665 681.928L334.901 689.064C334.017 697.324 329.901 705.783 325.856 707.65C324.323 708.358 319.988 708.937 316.221 708.937C308.063 708.937 302.19 705.677 300.597 700.266C299.666 697.101 299.897 696.235 302.254 694.048C308.266 688.469 308.362 688.303 306.032 687.495C304.853 687.087 300.533 684.762 296.434 682.328C289.28 678.081 288.981 677.709 288.981 673.059C288.981 666.395 292.504 662.007 297.855 662.007C300.095 662.007 305.493 663.793 309.851 665.975ZM148.334 806.141C141.734 810.107 135.123 814.734 133.643 816.422C132.163 818.111 127.552 821.62 123.397 824.218C119.242 826.817 114.425 830.303 112.691 831.964C107.123 837.302 81.058 859.112 80.2464 859.112C79.3961 859.112 79.6423 855.459 81.3583 842.617C81.969 838.046 82.4725 829.651 82.4769 823.962C82.4847 815.379 82.1479 813.399 80.5048 812.33C79.3895 811.606 61.9975 810.853 40.7197 810.607C8.07922 810.23 2.76115 810.446 1.78609 812.183C1.1655 813.289 0.893862 817.797 1.18318 822.2C1.47359 826.604 1.21299 833.475 0.604546 837.47C-1.05625 848.382 -0.700677 848.595 20.5716 849.419C41.2652 850.221 40.309 849.343 38.9452 866.289C37.7096 881.644 35.9792 912.889 34.9633 938.223C34.4454 951.128 33.5443 972.549 32.9613 985.823C31.306 1023.5 31.1647 1029.21 31.8625 1030.06C32.2214 1030.49 36.1239 1029.93 40.5353 1028.82C44.9457 1027.7 49.0469 1027.16 49.6476 1027.61C50.2483 1028.06 55.626 1028.65 61.5989 1028.93C71.2843 1029.37 72.5774 1029.16 73.5535 1026.94C74.173 1025.54 74.9404 1004.74 75.3214 978.995C75.6924 953.989 76.2225 932.176 76.4996 930.52C77.0705 927.11 82.7166 923.315 101.826 913.5C108.498 910.073 116.795 905.462 120.264 903.252L126.571 899.235L128.785 901.923C136.751 911.596 163.479 923.418 181.921 925.426C191.578 926.477 193.243 927.391 192.731 931.367C192.353 934.309 180.853 950.789 164.633 971.635C155.993 982.739 137.698 1010.82 137.698 1012.97C137.698 1014.21 153.56 1033.42 154.581 1033.42C154.964 1033.42 158.572 1027.54 162.599 1020.35C175.058 998.104 177.872 993.617 191.254 974.658C193.076 972.077 196.555 966.824 198.984 962.988C201.414 959.151 206.018 952.268 209.217 947.692C216.007 937.976 218.309 932.025 218.309 924.179C218.309 917.984 215.275 911.332 210.579 907.229C206.504 903.67 191.551 899.384 180.212 898.524C167.127 897.531 146.532 890.243 146.532 886.605C146.532 883.639 154.962 877.046 171.716 866.908C180.458 861.617 187.896 856.385 188.245 855.283C188.997 852.904 179.575 829.932 175.401 823.967C173.795 821.675 170.48 815.224 168.034 809.632C165.588 804.041 162.855 799.347 161.961 799.198C161.066 799.05 154.936 802.175 148.334 806.141ZM570.279 804.927C568.918 805.765 564.49 806.809 560.439 807.244C556.281 807.694 551.24 809.233 548.86 810.781C545.47 812.987 542.594 813.528 534.141 813.544C527.377 813.556 521.864 814.324 518.665 815.7C515.932 816.876 510.217 817.998 505.966 818.194C499.469 818.494 496.787 819.427 489.159 824.041C484.168 827.061 478.205 831.821 475.908 834.619C471.167 840.394 465.161 853.47 464.041 860.453C463.626 863.034 462.382 868.163 461.277 871.851C456.948 886.281 454.395 897.831 452.977 909.394C450.796 927.182 451.853 956.93 454.743 959.1C455.282 959.503 455.722 960.925 455.722 962.256C455.722 963.589 456.709 966.201 457.915 968.063C459.121 969.926 461.379 974.521 462.932 978.277C464.734 982.63 467.439 986.493 470.402 988.939C478.196 995.374 489.189 1002.27 493.267 1003.28C495.392 1003.8 497.629 1004.64 498.236 1005.14C502.218 1008.41 515.62 1011.64 529.155 1012.6C535.228 1013.03 546.16 1013.81 553.448 1014.33C568.354 1015.39 578.725 1015.33 600.379 1014.02C612.4 1013.29 615.853 1012.63 618.213 1010.59C619.823 1009.2 623.798 1006.92 627.047 1005.53C630.296 1004.14 634.887 1001.39 637.25 999.437C639.612 997.48 642.186 995.879 642.97 995.879C643.754 995.879 647.616 997.69 651.552 999.902C655.489 1002.11 659.388 1003.92 660.217 1003.92C661.047 1003.92 662.706 1004.75 663.903 1005.76C668.798 1009.88 679.209 1015.97 682.741 1016.77C685.933 1017.5 686.511 1017.25 686.514 1015.14C686.515 1013.76 688.281 1009.09 690.436 1004.75C696.864 991.802 696.756 990.607 688.488 983.176C681.482 976.879 675.498 972.39 665.142 965.658C660.183 962.434 659.822 961.858 660.291 957.909C660.76 953.966 665.906 937.618 669.654 928.166C670.938 924.927 671.168 918.398 670.835 894.645C670.374 861.944 669.793 858.199 662.448 840.559C652.617 816.947 637.46 807.722 604.796 805.469C575.074 803.419 572.789 803.383 570.279 804.927ZM374.008 842.953V855.09H379.508C386.001 855.09 386.467 854.019 385.937 840.299L385.602 831.625L379.805 831.22L374.008 830.814V842.953ZM150.181 850.917C150.892 855.283 150.76 857.225 149.663 858.524C148.296 860.142 130.084 865.065 129.243 864.043C129.037 863.791 132.58 859.213 137.119 853.87C146.661 842.635 148.755 842.161 150.181 850.917ZM604.687 858.414C613.224 860.594 621.335 864.745 623.913 868.25C624.826 869.493 625.923 873.954 626.349 878.165L627.124 885.82L604.835 886.21C592.575 886.424 581.836 886.117 580.972 885.527C578.856 884.086 578.679 858.347 580.779 857.318C583.686 855.894 597.256 856.517 604.687 858.414ZM545.613 860.473C556.378 860.502 556.939 861.084 555.214 870.439C554.452 874.577 553.635 881.414 553.399 885.633C553.162 889.851 552.628 898.032 552.211 903.811L551.452 914.318L543.616 913.383C536.045 912.48 529.707 909.51 529.707 906.866C529.707 904.094 514.838 876.965 511.131 872.973C507.676 869.252 507.379 868.458 508.709 866.513C512.636 860.767 517.653 859.001 527.945 859.744C533.352 860.134 541.303 860.463 545.613 860.473ZM361.585 877.38C360.523 877.766 359.618 878.791 359.577 879.658C359.535 880.526 359.372 886.667 359.213 893.304C359.055 899.941 358.516 918.504 358.016 934.556L357.107 963.739L368.594 962.877C374.912 962.404 380.455 961.609 380.913 961.111C383.852 957.909 385.346 884.737 382.566 880.133C381.526 878.411 379.007 877.703 372.351 877.264C367.493 876.943 362.647 876.995 361.585 877.38ZM503.036 912.016C505.829 915.515 507.649 918.964 507.43 920.344C506.921 923.55 497.472 930.509 495.116 929.412C493.637 928.723 493.267 926.722 493.267 919.417C493.267 914.394 493.568 909.33 493.937 908.163C495.083 904.536 498.079 905.805 503.036 912.016ZM603.18 914.95C612.157 915.391 620.35 915.152 622.645 914.382C628.381 912.46 629.8 913.98 628.214 920.351C626.307 928.012 619.116 939.4 616.128 939.49C614.769 939.53 609.054 937.804 603.429 935.655C597.804 933.506 591.479 931.317 589.373 930.792C587.267 930.266 584.783 929.374 583.852 928.81C582.921 928.247 580.793 927.129 579.122 926.328C576.767 925.199 576.086 923.984 576.086 920.916C576.086 915.09 578.88 912.317 583.718 913.345C585.897 913.807 594.656 914.53 603.18 914.95ZM542.406 948.464C544.835 949.608 549.059 951.446 551.792 952.551C554.525 953.655 557.88 955.107 559.246 955.777C563.456 957.841 566.443 959.141 573.325 961.906C577.301 963.503 579.95 965.332 579.95 966.48C579.95 969.616 549.917 968.71 542.958 965.363C542.047 964.926 540.059 964.495 538.541 964.407C528.618 963.834 512.646 958.169 511.597 954.849C511.058 953.144 515.517 949.843 521.977 947.166C525.544 945.687 538.219 946.493 542.406 948.464Z"/>
</mask>
<path fill-rule="evenodd" clip-rule="evenodd" d="M97.1005 0.998134C95.7257 1.67929 94.0837 3.9118 93.4532 5.95928C92.8227 8.00677 91.0901 12.6676 89.6049 16.3147C88.1186 19.9631 86.9028 23.7779 86.9028 24.7929C86.9028 25.8079 84.2206 33.3824 80.9431 41.6259C77.6646 49.8682 74.6202 58.7044 74.1763 61.2614C73.7335 63.8184 72.9528 66.8353 72.4404 67.9656C70.8989 71.3714 64.2093 92.3919 62.6126 98.8495C61.7921 102.168 60.71 105.456 60.2086 106.157C59.7073 106.857 59.2965 108.876 59.2965 110.644C59.2965 112.41 58.4772 115.54 57.4745 117.6C55.0573 122.57 56.1538 125.667 60.3334 125.667C62.1565 125.667 66.3637 127.175 69.6831 129.019C73.0025 130.862 76.5372 132.371 77.5365 132.371C78.537 132.371 82.8347 134.225 87.0883 136.493C91.343 138.76 95.4287 140.331 96.1686 139.987C96.9084 139.642 98.1805 136.731 98.9943 133.519C99.8081 130.306 101.06 125.396 101.777 122.608L103.08 117.537L104.4 121.054C107.32 128.838 109.862 140.212 110.525 148.461C111.443 159.89 114.172 172.98 120.575 196.654L125.812 216.02L133.412 225.138C138.269 230.966 141.011 235.329 141.011 237.232C141.011 238.868 138.747 245.784 135.98 252.6C131.67 263.214 130.8 266.778 129.906 277.456C129.331 284.312 128.417 291.429 127.875 293.273C125.808 300.292 121.726 329.943 122.493 332.366C122.932 333.757 127.322 334.251 141.699 334.53C164.022 334.961 166.292 334.394 168.136 327.93C171.594 315.799 180.228 296.884 187.323 285.898C191.609 279.261 195.489 273.221 195.946 272.476C196.402 271.731 198.555 268.412 200.728 265.102C202.902 261.79 207.349 254.254 210.61 248.354C218.973 233.222 226.27 221.735 236.529 207.554C242.897 198.75 245.47 195.09 253.092 183.99C256.129 179.567 259.144 175.345 259.792 174.608C260.44 173.87 262.94 170.25 265.347 166.563C269.285 160.529 271.632 156.384 277.107 145.779C279.887 140.393 301.89 109.547 308.41 101.893C318.885 89.5976 321.188 82.29 315.911 78.0917C314.325 76.83 309.231 71.4452 304.592 66.1273C295.168 55.3227 280.225 42.5337 277.026 42.5337C274.245 42.5337 268.061 47.7402 258.489 58.1372C254.169 62.8302 250.069 66.669 249.379 66.669C248.689 66.669 248.123 67.1424 248.123 67.7203C248.123 68.2995 246.509 69.9166 244.534 71.3151C240.747 73.9995 232.833 81.6276 225.707 89.4635C217.03 99.005 213.304 99.8806 215.942 91.7591C222.637 71.1515 224.018 54.7998 220.518 37.539C219.21 31.0815 217.684 25.1335 217.129 24.3223C216.574 23.5097 216.375 22.5349 216.686 22.1554C216.999 21.776 215.343 19.0742 213.005 16.1498C210.021 12.4155 207.137 10.3385 203.318 9.17331C200.327 8.26019 196.083 6.94615 193.887 6.25159C186.945 4.05796 171.044 4.68145 167.407 7.29075C165.644 8.55517 164.2 10.0046 164.2 10.5101C164.2 11.7035 156.742 17.0495 155.027 17.0843C154.303 17.0991 150.533 20.1267 146.652 23.8141C137.725 32.2909 137.94 32.5832 132.342 4.31942L131.545 0.296868L115.574 0.0286963C106.789 -0.118797 98.4764 0.316981 97.1005 0.998134ZM432.533 63.3544C422.101 65.5105 408.611 66.0522 399.705 64.6752C394.91 63.9337 392.356 64.0852 391.273 65.178C390.038 66.4223 389.55 74.6873 388.905 105.256C388.355 131.365 387.693 144.086 386.848 144.754C386.163 145.295 383.341 145.747 380.578 145.759C377.814 145.77 375.081 146.333 374.505 147.01C373.928 147.687 368.238 148.536 361.861 148.897C355.484 149.259 348.279 150.07 345.849 150.699C341.814 151.745 341.405 152.249 341.114 156.522C340.844 160.483 341.923 170.923 344.959 193.727C345.28 196.131 345.951 198.405 346.451 198.78C346.953 199.156 349.755 198.787 352.679 197.96C355.603 197.133 359.735 196.201 361.861 195.888C363.987 195.576 367.465 194.924 369.591 194.439C371.716 193.953 374.946 193.463 376.768 193.349C388.343 192.625 391.291 192.484 392.674 192.59C393.962 192.689 394.095 195.609 393.461 209.805C393.042 219.207 392.525 228.711 392.312 230.923C392.1 233.136 391.353 243.907 390.653 254.859C389.243 276.939 389.676 279.38 394.594 277.11C396.105 276.413 400.017 275.842 403.288 275.842C406.559 275.842 411.62 275.249 414.535 274.525C420.573 273.025 438.423 272.366 502.589 271.272C529.899 270.807 548.229 269.978 548.886 269.181C549.599 268.314 549.383 267.043 548.255 265.483C546.525 263.086 543.008 255.289 542.803 253.396C542.547 251.023 540.489 245.529 539.157 243.664C538.367 242.557 536.718 238.332 535.493 234.276C533.328 227.097 533.126 226.866 527.899 225.577C524.837 224.823 500.821 224.246 472.01 224.237L421.489 224.219L421.372 218.185C420.859 191.801 421.086 185.794 422.643 184.576C423.528 183.884 431.456 183.469 440.263 183.656C459.716 184.066 496.321 179.597 499.519 176.42C501.103 174.848 503.061 164.727 503.459 156.064L503.757 149.587L499.126 147.658C496.578 146.597 494.094 145.862 493.605 146.025C493.116 146.187 489.485 145.842 485.537 145.258C472.129 143.273 446.756 143.25 436.189 145.213C430.608 146.25 425.266 146.737 424.319 146.296C422.93 145.649 422.542 142.71 422.325 131.222C421.947 111.243 422.382 99.9128 423.582 98.4553C424.146 97.7701 431.484 97.2431 439.89 97.2834C454.393 97.3544 476.538 95.6019 481.938 93.9554C484.353 93.2192 484.433 92.6869 484.433 77.251V61.3056L462.624 61.4746C450.628 61.5671 437.088 62.4132 432.533 63.3544ZM176.811 92.4804C176.665 94.8765 176.27 99.5534 175.933 102.872C173.76 124.234 173.267 125.955 170.029 123.52C167.162 121.365 167.044 114.642 169.698 104.666C171.509 97.8573 175.758 88.1227 176.919 88.1227C177.005 88.1227 176.957 90.0843 176.811 92.4804ZM229.643 124.863C229.363 126.633 226.397 131.57 223.05 135.833C217.716 142.628 216.831 143.295 215.88 141.231C214.09 137.348 216.937 131.531 223.121 126.433C229.929 120.823 230.292 120.735 229.643 124.863ZM385.606 314.563C382.515 315.365 382.243 315.939 381.49 323.264C380.251 335.302 379.723 466.48 380.899 469.698C381.739 471.992 382.926 472.49 387.625 472.518C395.15 472.564 405.764 474.014 409.896 475.563C411.718 476.247 420.662 476.474 429.772 476.069C458 474.811 505.397 475.854 527.499 478.221C565.711 482.31 668.595 484.488 677.006 481.384L680.201 480.205L680.531 464.174C680.876 447.456 679.418 416.957 678.203 415.484C677.818 415.014 674.187 414.215 670.136 413.707C666.084 413.199 659.788 412.197 656.144 411.483C652.5 410.768 645.543 409.855 640.684 409.454C635.825 409.054 629.147 408.085 625.843 407.302C604.334 402.202 596.702 401.618 554.001 401.807C520.703 401.953 411.209 401.112 401.338 400.635C399.54 400.548 399.406 397.613 399.406 358.573C399.406 327.718 399.054 316.177 398.08 314.995C396.688 313.304 391.187 313.114 385.606 314.563ZM66.2997 368.034L62.8125 368.512L62.3818 382.181C62.1455 389.698 62.3675 402.787 62.8765 411.268C63.4452 420.763 63.3116 439.311 62.5298 459.539C61.1274 495.77 61.4432 533.79 63.1614 535.769C63.846 536.557 69.9294 536.611 79.173 535.908C106.027 533.867 131.185 532.855 158.127 532.734C172.703 532.669 185.307 532.084 186.135 531.436C186.963 530.787 201.622 530.332 218.71 530.424C249.287 530.589 258.452 529.866 291.216 524.708C299.307 523.434 305.433 523.112 308.039 523.827C310.305 524.447 315.969 524.405 320.711 523.733C328.98 522.561 363.411 523.247 365.241 524.621C365.734 524.99 382.194 525.589 401.819 525.952C421.445 526.316 438.993 526.898 440.815 527.245C446.426 528.316 447.428 526.507 447.543 515.102C447.716 497.761 448.425 498.768 435.459 497.969C421.333 497.097 400.873 494.823 399.726 493.997C398.052 492.793 368.87 491.444 346.954 491.56C334.807 491.623 320.645 490.978 315.483 490.126C310.32 489.275 295.164 488.514 281.803 488.437C262.937 488.325 255.906 487.79 250.332 486.042C240.588 482.983 220.928 480.589 213.718 481.58C210.473 482.026 185.332 482.64 157.851 482.945C111.537 483.458 107.888 483.335 107.942 481.24C107.974 479.997 108.672 474.154 109.491 468.254C110.603 460.259 110.866 446.772 110.525 415.291C110.273 392.06 109.846 371.847 109.574 370.372C109.105 367.816 108.157 367.688 89.4337 367.623C78.6286 367.586 68.2178 367.771 66.2997 368.034ZM596.514 528.139C589.833 528.76 577.575 529.72 569.273 530.271C560.971 530.822 553.813 531.719 553.366 532.265C552.918 532.81 551.665 539.748 550.58 547.685C548.601 562.149 547.15 570.694 545.397 578.204L544.458 582.227L511.961 582.897C494.087 583.266 478.808 584.082 478.006 584.71C476.837 585.627 476.686 591.465 477.252 614.209C477.646 630.108 477.422 654.572 476.742 669.897C476.074 684.93 475.696 697.435 475.902 697.685C476.108 697.935 483.205 697.498 491.673 696.714C500.142 695.929 513.778 695.192 521.977 695.074C536.317 694.866 536.871 694.96 536.522 697.54C535.521 704.955 533.657 746.655 533.617 762.536L533.572 780.603L551.792 780.189C561.813 779.962 574.733 779.141 580.503 778.365C586.272 777.59 598.57 776.706 607.833 776.402L624.673 775.848L624.888 770.215C625.24 760.97 625.431 758.174 626.136 751.844C626.506 748.526 627.398 736.607 628.117 725.357C628.839 714.072 629.968 704.377 630.638 703.728C631.305 703.08 637.316 702.182 643.997 701.731C656.458 700.891 670.958 698.937 671.381 698.043C671.512 697.766 671.367 668.577 671.059 633.179L670.499 568.818L667.738 569.204C665.148 569.568 648.788 569.813 642.064 569.589C637.704 569.444 637.798 565.788 642.736 543.573C643.691 539.275 645.183 534.032 646.05 531.921C646.917 529.81 647.348 527.745 647.008 527.332C646.114 526.247 610.79 526.812 596.514 528.139ZM158.679 561.573C132.414 563.122 121.985 565.175 104.571 572.225C103.052 572.841 100.217 573.726 98.2688 574.192C85.2442 577.311 67.892 597.416 62.9803 615.077C61.2643 621.247 61.166 636.283 62.8036 642.03C65.6879 652.151 74.6202 668.248 80.7565 674.382C87.8834 681.506 101.402 688.02 113.734 690.272C118.108 691.072 123.816 692.581 126.418 693.627C129.021 694.673 132.653 695.529 134.489 695.529C136.434 695.529 137.544 696.089 137.146 696.869C136.771 697.607 135.032 698.21 133.281 698.21C131.531 698.21 129.826 698.747 129.491 699.404C129.158 700.059 127.265 700.92 125.285 701.317C123.307 701.714 119.451 702.659 116.718 703.418C113.985 704.177 108.011 704.823 103.441 704.855C98.5074 704.89 90.8847 706.212 84.6689 708.11C78.9135 709.868 65.7564 712.335 55.4317 713.592C45.1069 714.85 36.4463 716.136 36.1857 716.447C33.9938 719.073 31.8007 757.259 33.6393 760.768C34.1804 761.799 38.8801 762.312 47.7019 762.306C54.99 762.3 62.6921 762.981 64.8178 763.821C66.9435 764.66 79.1178 765.892 91.8719 766.56C105.219 767.259 118.81 768.723 123.895 770.009C129.348 771.39 141.604 772.617 155.918 773.216C169.614 773.789 188.149 775.604 201.193 777.649C213.339 779.554 231.228 781.787 240.946 782.611C250.663 783.436 262.217 784.705 266.622 785.431C274.169 786.676 311.271 791.693 322.108 792.935C324.841 793.247 335.028 794.954 344.745 796.728C378.405 802.869 390.617 804.419 392.264 802.759C393.1 801.917 395.127 798.413 396.769 794.973C398.41 791.532 402.783 784.192 406.488 778.661C413.944 767.531 417.986 760.306 420.796 753.086C421.822 750.451 424.358 746.109 426.432 743.441C432.152 736.077 437.893 725.369 439.143 719.735C441.138 710.736 443.732 673.754 442.957 665.359C441.888 653.792 440 649.94 435.401 649.94C433.365 649.94 431.103 650.811 430.375 651.877C429.647 652.943 426.588 655.733 423.578 658.079C418.321 662.175 418.021 662.25 415.962 659.987C412.425 656.101 412.408 653.269 415.867 644.358C417.68 639.685 419.715 632.844 420.389 629.156C421.062 625.469 422.245 621.245 423.017 619.77C423.79 618.296 425.603 612.073 427.047 605.942C428.987 597.705 429.372 594.204 428.517 592.534C427.005 589.573 409.506 579.159 401.062 576.194C397.418 574.915 392.2 572.639 389.467 571.139C386.734 569.639 383.007 568.065 381.185 567.641C379.363 567.217 376.77 566.489 375.421 566.022C373.453 565.341 372.54 566.061 370.782 569.678C369.579 572.155 368.484 574.785 368.349 575.522C368.214 576.26 366.782 579.585 365.167 582.912C363.552 586.238 360.081 594.226 357.455 600.661C354.829 607.097 351.811 613.316 350.75 614.483C348.96 616.449 348.768 616.32 348.116 612.718C347.173 607.504 338.422 597.421 330.942 592.928C327.602 590.922 322.136 587.295 318.795 584.869C312.06 579.977 304.889 576.89 288.428 571.796C272.613 566.902 265.594 565.731 242.602 564.157C231.366 563.386 216.956 562.159 210.579 561.427C197.679 559.95 185.672 559.983 158.679 561.573ZM309.851 665.975C319.623 670.868 323.84 674.428 326.073 679.674C327.644 683.36 328.147 683.642 331.73 682.825L335.665 681.928L334.901 689.064C334.017 697.324 329.901 705.783 325.856 707.65C324.323 708.358 319.988 708.937 316.221 708.937C308.063 708.937 302.19 705.677 300.597 700.266C299.666 697.101 299.897 696.235 302.254 694.048C308.266 688.469 308.362 688.303 306.032 687.495C304.853 687.087 300.533 684.762 296.434 682.328C289.28 678.081 288.981 677.709 288.981 673.059C288.981 666.395 292.504 662.007 297.855 662.007C300.095 662.007 305.493 663.793 309.851 665.975ZM148.334 806.141C141.734 810.107 135.123 814.734 133.643 816.422C132.163 818.111 127.552 821.62 123.397 824.218C119.242 826.817 114.425 830.303 112.691 831.964C107.123 837.302 81.058 859.112 80.2464 859.112C79.3961 859.112 79.6423 855.459 81.3583 842.617C81.969 838.046 82.4725 829.651 82.4769 823.962C82.4847 815.379 82.1479 813.399 80.5048 812.33C79.3895 811.606 61.9975 810.853 40.7197 810.607C8.07922 810.23 2.76115 810.446 1.78609 812.183C1.1655 813.289 0.893862 817.797 1.18318 822.2C1.47359 826.604 1.21299 833.475 0.604546 837.47C-1.05625 848.382 -0.700677 848.595 20.5716 849.419C41.2652 850.221 40.309 849.343 38.9452 866.289C37.7096 881.644 35.9792 912.889 34.9633 938.223C34.4454 951.128 33.5443 972.549 32.9613 985.823C31.306 1023.5 31.1647 1029.21 31.8625 1030.06C32.2214 1030.49 36.1239 1029.93 40.5353 1028.82C44.9457 1027.7 49.0469 1027.16 49.6476 1027.61C50.2483 1028.06 55.626 1028.65 61.5989 1028.93C71.2843 1029.37 72.5774 1029.16 73.5535 1026.94C74.173 1025.54 74.9404 1004.74 75.3214 978.995C75.6924 953.989 76.2225 932.176 76.4996 930.52C77.0705 927.11 82.7166 923.315 101.826 913.5C108.498 910.073 116.795 905.462 120.264 903.252L126.571 899.235L128.785 901.923C136.751 911.596 163.479 923.418 181.921 925.426C191.578 926.477 193.243 927.391 192.731 931.367C192.353 934.309 180.853 950.789 164.633 971.635C155.993 982.739 137.698 1010.82 137.698 1012.97C137.698 1014.21 153.56 1033.42 154.581 1033.42C154.964 1033.42 158.572 1027.54 162.599 1020.35C175.058 998.104 177.872 993.617 191.254 974.658C193.076 972.077 196.555 966.824 198.984 962.988C201.414 959.151 206.018 952.268 209.217 947.692C216.007 937.976 218.309 932.025 218.309 924.179C218.309 917.984 215.275 911.332 210.579 907.229C206.504 903.67 191.551 899.384 180.212 898.524C167.127 897.531 146.532 890.243 146.532 886.605C146.532 883.639 154.962 877.046 171.716 866.908C180.458 861.617 187.896 856.385 188.245 855.283C188.997 852.904 179.575 829.932 175.401 823.967C173.795 821.675 170.48 815.224 168.034 809.632C165.588 804.041 162.855 799.347 161.961 799.198C161.066 799.05 154.936 802.175 148.334 806.141ZM570.279 804.927C568.918 805.765 564.49 806.809 560.439 807.244C556.281 807.694 551.24 809.233 548.86 810.781C545.47 812.987 542.594 813.528 534.141 813.544C527.377 813.556 521.864 814.324 518.665 815.7C515.932 816.876 510.217 817.998 505.966 818.194C499.469 818.494 496.787 819.427 489.159 824.041C484.168 827.061 478.205 831.821 475.908 834.619C471.167 840.394 465.161 853.47 464.041 860.453C463.626 863.034 462.382 868.163 461.277 871.851C456.948 886.281 454.395 897.831 452.977 909.394C450.796 927.182 451.853 956.93 454.743 959.1C455.282 959.503 455.722 960.925 455.722 962.256C455.722 963.589 456.709 966.201 457.915 968.063C459.121 969.926 461.379 974.521 462.932 978.277C464.734 982.63 467.439 986.493 470.402 988.939C478.196 995.374 489.189 1002.27 493.267 1003.28C495.392 1003.8 497.629 1004.64 498.236 1005.14C502.218 1008.41 515.62 1011.64 529.155 1012.6C535.228 1013.03 546.16 1013.81 553.448 1014.33C568.354 1015.39 578.725 1015.33 600.379 1014.02C612.4 1013.29 615.853 1012.63 618.213 1010.59C619.823 1009.2 623.798 1006.92 627.047 1005.53C630.296 1004.14 634.887 1001.39 637.25 999.437C639.612 997.48 642.186 995.879 642.97 995.879C643.754 995.879 647.616 997.69 651.552 999.902C655.489 1002.11 659.388 1003.92 660.217 1003.92C661.047 1003.92 662.706 1004.75 663.903 1005.76C668.798 1009.88 679.209 1015.97 682.741 1016.77C685.933 1017.5 686.511 1017.25 686.514 1015.14C686.515 1013.76 688.281 1009.09 690.436 1004.75C696.864 991.802 696.756 990.607 688.488 983.176C681.482 976.879 675.498 972.39 665.142 965.658C660.183 962.434 659.822 961.858 660.291 957.909C660.76 953.966 665.906 937.618 669.654 928.166C670.938 924.927 671.168 918.398 670.835 894.645C670.374 861.944 669.793 858.199 662.448 840.559C652.617 816.947 637.46 807.722 604.796 805.469C575.074 803.419 572.789 803.383 570.279 804.927ZM374.008 842.953V855.09H379.508C386.001 855.09 386.467 854.019 385.937 840.299L385.602 831.625L379.805 831.22L374.008 830.814V842.953ZM150.181 850.917C150.892 855.283 150.76 857.225 149.663 858.524C148.296 860.142 130.084 865.065 129.243 864.043C129.037 863.791 132.58 859.213 137.119 853.87C146.661 842.635 148.755 842.161 150.181 850.917ZM604.687 858.414C613.224 860.594 621.335 864.745 623.913 868.25C624.826 869.493 625.923 873.954 626.349 878.165L627.124 885.82L604.835 886.21C592.575 886.424 581.836 886.117 580.972 885.527C578.856 884.086 578.679 858.347 580.779 857.318C583.686 855.894 597.256 856.517 604.687 858.414ZM545.613 860.473C556.378 860.502 556.939 861.084 555.214 870.439C554.452 874.577 553.635 881.414 553.399 885.633C553.162 889.851 552.628 898.032 552.211 903.811L551.452 914.318L543.616 913.383C536.045 912.48 529.707 909.51 529.707 906.866C529.707 904.094 514.838 876.965 511.131 872.973C507.676 869.252 507.379 868.458 508.709 866.513C512.636 860.767 517.653 859.001 527.945 859.744C533.352 860.134 541.303 860.463 545.613 860.473ZM361.585 877.38C360.523 877.766 359.618 878.791 359.577 879.658C359.535 880.526 359.372 886.667 359.213 893.304C359.055 899.941 358.516 918.504 358.016 934.556L357.107 963.739L368.594 962.877C374.912 962.404 380.455 961.609 380.913 961.111C383.852 957.909 385.346 884.737 382.566 880.133C381.526 878.411 379.007 877.703 372.351 877.264C367.493 876.943 362.647 876.995 361.585 877.38ZM503.036 912.016C505.829 915.515 507.649 918.964 507.43 920.344C506.921 923.55 497.472 930.509 495.116 929.412C493.637 928.723 493.267 926.722 493.267 919.417C493.267 914.394 493.568 909.33 493.937 908.163C495.083 904.536 498.079 905.805 503.036 912.016ZM603.18 914.95C612.157 915.391 620.35 915.152 622.645 914.382C628.381 912.46 629.8 913.98 628.214 920.351C626.307 928.012 619.116 939.4 616.128 939.49C614.769 939.53 609.054 937.804 603.429 935.655C597.804 933.506 591.479 931.317 589.373 930.792C587.267 930.266 584.783 929.374 583.852 928.81C582.921 928.247 580.793 927.129 579.122 926.328C576.767 925.199 576.086 923.984 576.086 920.916C576.086 915.09 578.88 912.317 583.718 913.345C585.897 913.807 594.656 914.53 603.18 914.95ZM542.406 948.464C544.835 949.608 549.059 951.446 551.792 952.551C554.525 953.655 557.88 955.107 559.246 955.777C563.456 957.841 566.443 959.141 573.325 961.906C577.301 963.503 579.95 965.332 579.95 966.48C579.95 969.616 549.917 968.71 542.958 965.363C542.047 964.926 540.059 964.495 538.541 964.407C528.618 963.834 512.646 958.169 511.597 954.849C511.058 953.144 515.517 949.843 521.977 947.166C525.544 945.687 538.219 946.493 542.406 948.464Z" stroke="#16171A" stroke-width="2" mask="url(#path-1-inside-1_1_1311)"/>
</svg>
