<svg width="695" height="1034" viewBox="0 0 695 1034" fill="none" xmlns="http://www.w3.org/2000/svg">
<path opacity="0.4" fill-rule="evenodd" clip-rule="evenodd" d="M97.1005 1.53329C95.7257 2.21444 94.0837 4.44696 93.4532 6.49444C92.8227 8.54192 91.0901 13.2027 89.6049 16.8498C88.1186 20.4983 86.9028 24.313 86.9028 25.328C86.9028 26.3431 84.2206 33.9175 80.9431 42.1611C77.6646 50.4033 74.6202 59.2395 74.1763 61.7965C73.7335 64.3535 72.9528 67.3705 72.4404 68.5008C70.8989 71.9066 64.2093 92.9271 62.6126 99.3846C61.7921 102.703 60.71 105.991 60.2086 106.692C59.7073 107.392 59.2965 109.412 59.2965 111.179C59.2965 112.945 58.4772 116.076 57.4745 118.135C55.0573 123.106 56.1538 126.202 60.3334 126.202C62.1565 126.202 66.3637 127.71 69.6831 129.554C73.0025 131.397 76.5372 132.906 77.5365 132.906C78.537 132.906 82.8347 134.76 87.0883 137.028C91.343 139.295 95.4287 140.867 96.1686 140.522C96.9084 140.177 98.1805 137.266 98.9943 134.054C99.8081 130.841 101.06 125.931 101.777 123.143L103.08 118.072L104.4 121.589C107.32 129.373 109.862 140.747 110.525 148.996C111.443 160.426 114.172 173.515 120.575 197.189L125.812 216.555L133.412 225.673C138.269 231.501 141.011 235.865 141.011 237.767C141.011 239.403 138.747 246.319 135.98 253.135C131.67 263.749 130.8 267.313 129.906 277.991C129.331 284.847 128.417 291.964 127.875 293.808C125.808 300.828 121.726 330.478 122.493 332.901C122.932 334.293 127.322 334.786 141.699 335.065C164.022 335.497 166.292 334.929 168.136 328.465C171.594 316.334 180.228 297.419 187.323 286.433C191.609 279.796 195.489 273.756 195.946 273.012C196.402 272.266 198.555 268.947 200.728 265.637C202.902 262.325 207.349 254.789 210.61 248.89C218.973 233.757 226.27 222.27 236.529 208.089C242.897 199.285 245.47 195.626 253.092 184.525C256.129 180.103 259.144 175.88 259.792 175.143C260.44 174.405 262.94 170.785 265.347 167.098C269.285 161.064 271.632 156.919 277.107 146.314C279.887 140.928 301.89 110.082 308.41 102.428C318.885 90.1328 321.188 82.8251 315.911 78.6269C314.325 77.3652 309.231 71.9803 304.592 66.6625C295.168 55.8579 280.225 43.0689 277.026 43.0689C274.245 43.0689 268.061 48.2754 258.489 58.6724C254.169 63.3653 250.069 67.2042 249.379 67.2042C248.689 67.2042 248.123 67.6775 248.123 68.2554C248.123 68.8347 246.509 70.4517 244.534 71.8502C240.747 74.5346 232.833 82.1627 225.707 89.9987C217.03 99.5402 213.304 100.416 215.942 92.2942C222.637 71.6867 224.018 55.335 220.518 38.0742C219.21 31.6166 217.684 25.6686 217.129 24.8574C216.574 24.0449 216.375 23.0701 216.686 22.6906C216.999 22.3111 215.343 19.6093 213.005 16.6849C210.021 12.9506 207.137 10.8737 203.318 9.70846C200.327 8.79534 196.083 7.48131 193.887 6.78675C186.945 4.59312 171.044 5.21661 167.407 7.82591C165.644 9.09033 164.2 10.5398 164.2 11.0453C164.2 12.2387 156.742 17.5846 155.027 17.6195C154.303 17.6342 150.533 20.6619 146.652 24.3492C137.725 32.8261 137.94 33.1184 132.342 4.85458L131.545 0.832024L115.574 0.563853C106.789 0.416359 98.4764 0.852138 97.1005 1.53329ZM432.533 63.8896C422.101 66.0457 408.611 66.5874 399.705 65.2103C394.91 64.4689 392.356 64.6204 391.273 65.7132C390.038 66.9575 389.55 75.2225 388.905 105.791C388.355 131.9 387.693 144.621 386.848 145.289C386.163 145.83 383.341 146.282 380.578 146.294C377.814 146.305 375.081 146.868 374.505 147.545C373.928 148.222 368.238 149.071 361.861 149.432C355.484 149.794 348.279 150.605 345.849 151.234C341.814 152.28 341.405 152.784 341.114 157.057C340.844 161.018 341.923 171.458 344.959 194.262C345.28 196.666 345.951 198.94 346.451 199.316C346.953 199.691 349.755 199.322 352.679 198.495C355.603 197.668 359.735 196.736 361.861 196.423C363.987 196.111 367.465 195.459 369.591 194.974C371.716 194.489 374.946 193.998 376.768 193.884C388.343 193.16 391.291 193.019 392.674 193.125C393.962 193.224 394.095 196.145 393.461 210.34C393.042 219.742 392.525 229.246 392.312 231.459C392.1 233.671 391.353 244.442 390.653 255.394C389.243 277.474 389.676 279.916 394.594 277.646C396.105 276.948 400.017 276.377 403.288 276.377C406.559 276.377 411.62 275.784 414.535 275.06C420.573 273.56 438.423 272.902 502.589 271.807C529.899 271.342 548.229 270.514 548.886 269.716C549.599 268.85 549.383 267.578 548.255 266.018C546.525 263.622 543.008 255.825 542.803 253.931C542.547 251.558 540.489 246.064 539.157 244.199C538.367 243.092 536.718 238.867 535.493 234.811C533.328 227.632 533.126 227.401 527.899 226.113C524.837 225.358 500.821 224.781 472.01 224.772L421.489 224.754L421.372 218.72C420.859 192.337 421.086 186.33 422.643 185.111C423.528 184.419 431.456 184.004 440.263 184.191C459.716 184.601 496.321 180.132 499.519 176.956C501.103 175.383 503.061 165.262 503.459 156.599L503.757 150.122L499.126 148.193C496.578 147.132 494.094 146.398 493.605 146.56C493.116 146.722 489.485 146.377 485.537 145.793C472.129 143.808 446.756 143.786 436.189 145.749C430.608 146.785 425.266 147.272 424.319 146.831C422.93 146.184 422.542 143.245 422.325 131.757C421.947 111.778 422.382 100.448 423.582 98.9904C424.146 98.3053 431.484 97.7783 439.89 97.8185C454.393 97.8896 476.538 96.1371 481.938 94.4905C484.353 93.7544 484.433 93.2221 484.433 77.7862V61.8408L462.624 62.0097C450.628 62.1022 437.088 62.9483 432.533 63.8896ZM176.811 93.0156C176.665 95.4117 176.27 100.089 175.933 103.407C173.76 124.77 173.267 126.49 170.029 124.055C167.162 121.9 167.044 115.177 169.698 105.201C171.509 98.3924 175.758 88.6578 176.919 88.6578C177.005 88.6578 176.957 90.6195 176.811 93.0156ZM229.643 125.399C229.363 127.168 226.397 132.105 223.05 136.368C217.716 143.163 216.831 143.83 215.88 141.766C214.09 137.883 216.937 132.067 223.121 126.969C229.929 121.359 230.292 121.27 229.643 125.399ZM385.606 315.098C382.515 315.9 382.243 316.474 381.49 323.799C380.251 335.837 379.723 467.015 380.899 470.233C381.739 472.528 382.926 473.025 387.625 473.053C395.15 473.099 405.764 474.55 409.896 476.098C411.718 476.782 420.662 477.009 429.772 476.604C458 475.346 505.397 476.389 527.499 478.756C565.711 482.846 668.595 485.023 677.006 481.919L680.201 480.74L680.531 464.709C680.876 447.991 679.418 417.492 678.203 416.019C677.818 415.549 674.187 414.75 670.136 414.242C666.084 413.734 659.788 412.732 656.144 412.018C652.5 411.303 645.543 410.39 640.684 409.989C635.825 409.589 629.147 408.62 625.843 407.837C604.334 402.738 596.702 402.153 554.001 402.342C520.703 402.488 411.209 401.648 401.338 401.17C399.54 401.083 399.406 398.148 399.406 359.108C399.406 328.253 399.054 316.713 398.08 315.53C396.688 313.839 391.187 313.649 385.606 315.098ZM66.2997 368.569L62.8125 369.047L62.3818 382.716C62.1455 390.233 62.3675 403.322 62.8765 411.803C63.4452 421.298 63.3116 439.846 62.5298 460.074C61.1274 496.305 61.4432 534.325 63.1614 536.304C63.846 537.092 69.9294 537.146 79.173 536.443C106.027 534.403 131.185 533.39 158.127 533.27C172.703 533.204 185.307 532.619 186.135 531.972C186.963 531.323 201.622 530.867 218.71 530.959C249.287 531.124 258.452 530.401 291.216 525.243C299.307 523.969 305.433 523.648 308.039 524.362C310.305 524.982 315.969 524.94 320.711 524.268C328.98 523.097 363.411 523.782 365.241 525.156C365.734 525.525 382.194 526.124 401.819 526.488C421.445 526.851 438.993 527.433 440.815 527.78C446.426 528.851 447.428 527.043 447.543 515.637C447.716 498.296 448.425 499.303 435.459 498.504C421.333 497.632 400.873 495.358 399.726 494.532C398.052 493.328 368.87 491.979 346.954 492.095C334.807 492.158 320.645 491.513 315.483 490.661C310.32 489.81 295.164 489.05 281.803 488.972C262.937 488.861 255.906 488.326 250.332 486.577C240.588 483.519 220.928 481.124 213.718 482.115C210.473 482.561 185.332 483.175 157.851 483.48C111.537 483.993 107.888 483.87 107.942 481.775C107.974 480.533 108.672 474.689 109.491 468.789C110.603 460.794 110.866 447.308 110.525 415.826C110.273 392.595 109.846 372.382 109.574 370.907C109.105 368.351 108.157 368.223 89.4337 368.158C78.6286 368.121 68.2178 368.306 66.2997 368.569ZM596.514 528.674C589.833 529.295 577.575 530.255 569.273 530.806C560.971 531.358 553.813 532.255 553.366 532.8C552.918 533.345 551.665 540.284 550.58 548.22C548.601 562.684 547.15 571.229 545.397 578.739L544.458 582.762L511.961 583.432C494.087 583.801 478.808 584.617 478.006 585.245C476.837 586.162 476.686 592 477.252 614.744C477.646 630.644 477.422 655.107 476.742 670.432C476.074 685.466 475.696 697.97 475.902 698.22C476.108 698.47 483.205 698.033 491.673 697.249C500.142 696.465 513.778 695.727 521.977 695.609C536.317 695.401 536.871 695.495 536.522 698.075C535.521 705.49 533.657 747.19 533.617 763.071L533.572 781.138L551.792 780.724C561.813 780.497 574.733 779.677 580.503 778.9C586.272 778.125 598.57 777.242 607.833 776.937L624.673 776.383L624.888 770.75C625.24 761.505 625.431 758.71 626.136 752.379C626.506 749.061 627.398 737.142 628.117 725.892C628.839 714.608 629.968 704.912 630.638 704.263C631.305 703.615 637.316 702.717 643.997 702.266C656.458 701.426 670.958 699.472 671.381 698.578C671.512 698.302 671.367 669.113 671.059 633.714L670.499 569.353L667.738 569.739C665.148 570.103 648.788 570.348 642.064 570.124C637.704 569.979 637.798 566.323 642.736 544.108C643.691 539.81 645.183 534.568 646.05 532.456C646.917 530.345 647.348 528.28 647.008 527.867C646.114 526.783 610.79 527.347 596.514 528.674ZM158.679 562.109C132.414 563.657 121.985 565.71 104.571 572.76C103.052 573.376 100.217 574.261 98.2688 574.727C85.2442 577.846 67.892 597.951 62.9803 615.613C61.2643 621.782 61.166 636.818 62.8036 642.565C65.6879 652.686 74.6202 668.783 80.7565 674.917C87.8834 682.041 101.402 688.555 113.734 690.808C118.108 691.607 123.816 693.116 126.418 694.162C129.021 695.208 132.653 696.064 134.489 696.064C136.434 696.064 137.544 696.624 137.146 697.405C136.771 698.142 135.032 698.745 133.281 698.745C131.531 698.745 129.826 699.282 129.491 699.939C129.158 700.594 127.265 701.455 125.285 701.852C123.307 702.249 119.451 703.194 116.718 703.953C113.985 704.712 108.011 705.358 103.441 705.391C98.5074 705.426 90.8847 706.748 84.6689 708.645C78.9135 710.403 65.7564 712.87 55.4317 714.128C45.1069 715.385 36.4463 716.671 36.1857 716.982C33.9938 719.608 31.8007 757.794 33.6393 761.303C34.1804 762.334 38.8801 762.848 47.7019 762.841C54.99 762.835 62.6921 763.517 64.8178 764.356C66.9435 765.195 79.1178 766.428 91.8719 767.095C105.219 767.794 118.81 769.258 123.895 770.544C129.348 771.925 141.604 773.152 155.918 773.751C169.614 774.324 188.149 776.139 201.193 778.184C213.339 780.09 231.228 782.322 240.946 783.147C250.663 783.971 262.217 785.24 266.622 785.966C274.169 787.211 311.271 792.228 322.108 793.47C324.841 793.782 335.028 795.489 344.745 797.263C378.405 803.404 390.617 804.954 392.264 803.294C393.1 802.452 395.127 798.949 396.769 795.508C398.41 792.067 402.783 784.728 406.488 779.197C413.944 768.066 417.986 760.842 420.796 753.621C421.822 750.986 424.358 746.645 426.432 743.976C432.152 736.612 437.893 725.904 439.143 720.27C441.138 711.272 443.732 674.29 442.957 665.895C441.888 654.327 440 650.475 435.401 650.475C433.365 650.475 431.103 651.346 430.375 652.412C429.647 653.478 426.588 656.269 423.578 658.614C418.321 662.71 418.021 662.785 415.962 660.522C412.425 656.636 412.408 653.804 415.867 644.893C417.68 640.22 419.715 633.379 420.389 629.692C421.062 626.004 422.245 621.781 423.017 620.306C423.79 618.831 425.603 612.608 427.047 606.477C428.987 598.241 429.372 594.74 428.517 593.069C427.005 590.108 409.506 579.694 401.062 576.729C397.418 575.45 392.2 573.175 389.467 571.674C386.734 570.174 383.007 568.6 381.185 568.176C379.363 567.752 376.77 567.024 375.421 566.558C373.453 565.876 372.54 566.596 370.782 570.213C369.579 572.691 368.484 575.32 368.349 576.057C368.214 576.795 366.782 580.12 365.167 583.447C363.552 586.774 360.081 594.761 357.455 601.196C354.829 607.632 351.811 613.851 350.75 615.019C348.96 616.984 348.768 616.856 348.116 613.253C347.173 608.039 338.422 597.956 330.942 593.463C327.602 591.457 322.136 587.83 318.795 585.405C312.06 580.512 304.889 577.425 288.428 572.331C272.613 567.437 265.594 566.267 242.602 564.692C231.366 563.921 216.956 562.695 210.579 561.962C197.679 560.485 185.672 560.518 158.679 562.109ZM309.851 666.51C319.623 671.403 323.84 674.963 326.073 680.21C327.644 683.896 328.147 684.177 331.73 683.361L335.665 682.463L334.901 689.599C334.017 697.859 329.901 706.319 325.856 708.185C324.323 708.893 319.988 709.472 316.221 709.472C308.063 709.472 302.19 706.213 300.597 700.801C299.666 697.637 299.897 696.77 302.254 694.583C308.266 689.004 308.362 688.838 306.032 688.031C304.853 687.622 300.533 685.297 296.434 682.863C289.28 678.617 288.981 678.244 288.981 673.594C288.981 666.93 292.504 662.542 297.855 662.542C300.095 662.542 305.493 664.328 309.851 666.51ZM148.334 806.676C141.734 810.642 135.123 815.269 133.643 816.958C132.163 818.646 127.552 822.155 123.397 824.753C119.242 827.352 114.425 830.838 112.691 832.499C107.123 837.837 81.058 859.648 80.2464 859.648C79.3961 859.648 79.6423 855.994 81.3583 843.152C81.969 838.582 82.4725 830.186 82.4769 824.497C82.4847 815.914 82.1479 813.934 80.5048 812.865C79.3895 812.141 61.9975 811.388 40.7197 811.142C8.07922 810.766 2.76115 810.981 1.78609 812.718C1.1655 813.824 0.893862 818.332 1.18318 822.735C1.47359 827.139 1.21299 834.011 0.604546 838.005C-1.05625 848.917 -0.700677 849.13 20.5716 849.955C41.2652 850.756 40.309 849.878 38.9452 866.824C37.7096 882.179 35.9792 913.424 34.9633 938.758C34.4454 951.664 33.5443 973.084 32.9613 986.358C31.306 1024.03 31.1647 1029.74 31.8625 1030.59C32.2214 1031.03 36.1239 1030.47 40.5353 1029.35C44.9457 1028.24 49.0469 1027.69 49.6476 1028.14C50.2483 1028.59 55.626 1029.19 61.5989 1029.46C71.2843 1029.91 72.5774 1029.69 73.5535 1027.48C74.173 1026.07 74.9404 1005.27 75.3214 979.531C75.6924 954.524 76.2225 932.711 76.4996 931.055C77.0705 927.645 82.7166 923.85 101.826 914.035C108.498 910.608 116.795 905.997 120.264 903.787L126.571 899.77L128.785 902.458C136.751 912.131 163.479 923.954 181.921 925.961C191.578 927.012 193.243 927.927 192.731 931.902C192.353 934.844 180.853 951.324 164.633 972.171C155.993 983.274 137.698 1011.35 137.698 1013.5C137.698 1014.74 153.56 1033.96 154.581 1033.96C154.964 1033.96 158.572 1028.07 162.599 1020.89C175.058 998.639 177.872 994.152 191.254 975.193C193.076 972.612 196.555 967.36 198.984 963.523C201.414 959.686 206.018 952.803 209.217 948.227C216.007 938.511 218.309 932.56 218.309 924.714C218.309 918.519 215.275 911.867 210.579 907.764C206.504 904.205 191.551 899.919 180.212 899.059C167.127 898.066 146.532 890.778 146.532 887.14C146.532 884.175 154.962 877.582 171.716 867.443C180.458 862.152 187.896 856.92 188.245 855.818C188.997 853.439 179.575 830.467 175.401 824.503C173.795 822.21 170.48 815.759 168.034 810.168C165.588 804.576 162.855 799.882 161.961 799.733C161.066 799.585 154.936 802.71 148.334 806.676ZM570.279 805.462C568.918 806.3 564.49 807.344 560.439 807.779C556.281 808.229 551.24 809.768 548.86 811.317C545.47 813.522 542.594 814.063 534.141 814.079C527.377 814.091 521.864 814.859 518.665 816.235C515.932 817.411 510.217 818.533 505.966 818.729C499.469 819.029 496.787 819.962 489.159 824.576C484.168 827.596 478.205 832.356 475.908 835.154C471.167 840.929 465.161 854.005 464.041 860.988C463.626 863.57 462.382 868.698 461.277 872.386C456.948 886.816 454.395 898.366 452.977 909.93C450.796 927.717 451.853 957.465 454.743 959.635C455.282 960.039 455.722 961.46 455.722 962.791C455.722 964.124 456.709 966.736 457.915 968.599C459.121 970.461 461.379 975.056 462.932 978.812C464.734 983.166 467.439 987.029 470.402 989.474C478.196 995.909 489.189 1002.8 493.267 1003.81C495.392 1004.34 497.629 1005.18 498.236 1005.68C502.218 1008.94 515.62 1012.18 529.155 1013.14C535.228 1013.57 546.16 1014.35 553.448 1014.87C568.354 1015.93 578.725 1015.86 600.379 1014.55C612.4 1013.83 615.853 1013.16 618.213 1011.13C619.823 1009.74 623.798 1007.46 627.047 1006.06C630.296 1004.67 634.887 1001.93 637.25 999.972C639.612 998.016 642.186 996.415 642.97 996.415C643.754 996.415 647.616 998.225 651.552 1000.44C655.489 1002.65 659.388 1004.46 660.217 1004.46C661.047 1004.46 662.706 1005.29 663.903 1006.29C668.798 1010.42 679.209 1016.5 682.741 1017.31C685.933 1018.04 686.511 1017.79 686.514 1015.67C686.515 1014.3 688.281 1009.62 690.436 1005.28C696.864 992.337 696.756 991.142 688.488 983.711C681.482 977.415 675.498 972.925 665.142 966.193C660.183 962.97 659.822 962.393 660.291 958.444C660.76 954.501 665.906 938.153 669.654 928.702C670.938 925.462 671.168 918.933 670.835 895.18C670.374 862.48 669.793 858.735 662.448 841.094C652.617 817.482 637.46 808.257 604.796 806.004C575.074 803.954 572.789 803.918 570.279 805.462ZM374.008 843.488V855.625H379.508C386.001 855.625 386.467 854.554 385.937 840.834L385.602 832.16L379.805 831.755L374.008 831.349V843.488ZM150.181 851.452C150.892 855.818 150.76 857.76 149.663 859.059C148.296 860.677 130.084 865.6 129.243 864.578C129.037 864.326 132.58 859.748 137.119 854.405C146.661 843.17 148.755 842.697 150.181 851.452ZM604.687 858.949C613.224 861.129 621.335 865.281 623.913 868.786C624.826 870.029 625.923 874.489 626.349 878.7L627.124 886.355L604.835 886.745C592.575 886.959 581.836 886.652 580.972 886.062C578.856 884.621 578.679 858.882 580.779 857.854C583.686 856.43 597.256 857.052 604.687 858.949ZM545.613 861.009C556.378 861.037 556.939 861.619 555.214 870.974C554.452 875.112 553.635 881.949 553.399 886.168C553.162 890.387 552.628 898.567 552.211 904.346L551.452 914.853L543.616 913.919C536.045 913.015 529.707 910.045 529.707 907.401C529.707 904.629 514.838 877.5 511.131 873.508C507.676 869.787 507.379 868.993 508.709 867.048C512.636 861.302 517.653 859.536 527.945 860.279C533.352 860.669 541.303 860.998 545.613 861.009ZM361.585 877.915C360.523 878.302 359.618 879.326 359.577 880.194C359.535 881.061 359.372 887.202 359.213 893.839C359.055 900.477 358.516 919.039 358.016 935.091L357.107 964.274L368.594 963.412C374.912 962.939 380.455 962.144 380.913 961.646C383.852 958.444 385.346 885.273 382.566 880.668C381.526 878.947 379.007 878.239 372.351 877.799C367.493 877.478 362.647 877.531 361.585 877.915ZM503.036 912.551C505.829 916.051 507.649 919.499 507.43 920.879C506.921 924.085 497.472 931.044 495.116 929.947C493.637 929.258 493.267 927.257 493.267 919.952C493.267 914.93 493.568 909.865 493.937 908.699C495.083 905.072 498.079 906.34 503.036 912.551ZM603.18 915.485C612.157 915.926 620.35 915.687 622.645 914.918C628.381 912.995 629.8 914.515 628.214 920.886C626.307 928.547 619.116 939.935 616.128 940.025C614.769 940.065 609.054 938.34 603.429 936.19C597.804 934.041 591.479 931.853 589.373 931.327C587.267 930.801 584.783 929.91 583.852 929.345C582.921 928.782 580.793 927.664 579.122 926.863C576.767 925.734 576.086 924.519 576.086 921.452C576.086 915.626 578.88 912.853 583.718 913.88C585.897 914.342 594.656 915.065 603.18 915.485ZM542.406 948.999C544.835 950.143 549.059 951.981 551.792 953.086C554.525 954.19 557.88 955.642 559.246 956.312C563.456 958.376 566.443 959.677 573.325 962.441C577.301 964.038 579.95 965.867 579.95 967.015C579.95 970.151 549.917 969.245 542.958 965.898C542.047 965.461 540.059 965.031 538.541 964.942C528.618 964.37 512.646 958.704 511.597 955.384C511.058 953.679 515.517 950.378 521.977 947.701C525.544 946.222 538.219 947.028 542.406 948.999Z" fill="#6B6E7A"/>
</svg>
